<?xml version="1.0"?>
<svg xmlns="http://www.w3.org/2000/svg" viewBox="0 -19 512.00012 512" width="512px" height="512px"><path d="m220.652344 131.945312c-3.902344 3.902344-3.902344 10.230469 0 14.140626 3.910156 3.902343 10.238281 3.902343 14.140625 0 3.910156-3.910157 3.910156-10.238282 0-14.140626-3.902344-3.910156-10.230469-3.910156-14.140625 0zm0 0" fill="#FFFFFF"/><path d="m496.625 322.878906-149.199219-123.015625c4.441407-10.863281 2.265625-23.742187-6.558593-32.566406-2.476563-2.476563-5.285157-4.421875-8.289063-5.847656l12.097656-12.097657c13.792969 3.664063 28.46875-.1875 38.617188-10.335937 15.59375-15.597656 15.59375-40.976563 0-56.574219l-70.710938-70.707031c-15.601562-15.632813-40.945312-15.65625-56.566406-.007813-10.421875 10.410157-13.863281 25.253907-10.328125 38.609376l-92.457031 92.457031c-13.285157-3.539063-28.097657-.203125-38.644531 10.363281-15.597657 15.597656-15.597657 40.976562 0 56.574219l70.710937 70.714843c15.597656 15.59375 40.96875 15.59375 56.566406 0 7.558594-7.558593 11.71875-17.605468 11.71875-28.289062 0-3.546875-.46875-7.023438-1.355469-10.363281l12.058594-12.054688c1.449219 3.03125 3.421875 5.824219 5.867188 8.273438 8.734375 8.734375 21.515625 10.984375 32.363281 6.636719l123.488281 148.894531c.199219.238281.40625.464843.625.683593 19.53125 19.546876 51.160156 19.5625 70.707032.007813 19.550781-19.539063 19.554687-51.167969 0-70.710937-.226563-.226563-.464844-.441407-.710938-.644532zm-226.464844-297.011718c7.699219-7.710938 20.371094-7.910157 28.273438.003906l70.714844 70.714844c7.796874 7.796874 7.796874 20.488281 0 28.289062-7.792969 7.789062-20.472657 7.792969-28.265626.003906-.03125-.027344-.0625-.054687-.09375-.085937l-70.738281-70.746094c-.003906 0-.003906-.003906-.003906-.003906-7.683594-7.796875-7.636719-20.433594.113281-28.175781zm-42.441406 240.433593c-7.808594 7.8125-20.46875 7.8125-28.277344 0l-70.714844-70.710937c-7.796874-7.800782-7.796874-20.492188.007813-28.296875 7.796875-7.808594 20.457031-7.8125 28.261719-.003907l70.71875 70.71875c0 .003907.003906.003907.003906.007813 7.800781 7.796875 7.800781 20.488281 0 28.285156zm14.144531-42.429687c-.003906-.003906-.003906-.003906-.003906-.007813l-70.707031-70.707031 84.859375-84.863281 14.144531 14.144531-21.214844 21.214844c-3.90625 3.90625-3.90625 10.238281 0 14.144531s10.238282 3.90625 14.144532 0l21.214843-21.214844 42.429688 42.429688-28.046875 28.046875c-.085938.085937-.183594.171875-.25.242187l-28.277344 28.289063zm42.433594 0c-3.910156-3.910156-3.914063-10.222656-.003906-14.136719h.003906c0-.003906 0-.003906.003906-.007813l28.125-28.132812c.070313-.066406.144531-.136719.21875-.210938 3.894531-3.835937 10.214844-3.808593 14.082031.058594 3.730469 3.726563 3.886719 9.589844.558594 13.519532-.226562.226562-.441406.464843-.644531.714843l-28.207031 28.195313c-.101563.105468-.210938.203125-.320313.296875-.023437.023437-.050781.046875-.074219.070312-3.945312 3.554688-9.984374 3.394531-13.742187-.367187zm198.894531 156.21875c-11.648437 11.65625-30.394531 11.703125-42.109375.304687l-122.808593-148.078125 16.757812-16.75 148.476562 122.421875c11.410157 11.734375 11.324219 30.46875-.316406 42.101563zm0 0" fill="#FFFFFF"/><path d="m10 473.882812h240.011719c5.523437 0 9.902343-4.476562 9.902343-10v-30c0-13.039062-8.261718-24.15625-19.902343-28.28125v-1.722656c0-27.570312-22.429688-50-50.003907-50h-120.003906c-27.570312 0-50.003906 22.429688-50.003906 50v1.722656c-11.636719 4.125-20 15.242188-20 28.28125v30c0 5.523438 4.476562 10 10 10zm60.003906-100.003906h120.003906c16.542969 0 30.003907 13.457032 30.003907 30h-180.007813c0-16.542968 13.457032-30 30-30zm-50.101562 60.003906c0-5.515624 4.585937-10 10.097656-10h200.011719c5.515625 0 10 4.484376 10 10v20h-220.109375zm0 0" fill="#FFFFFF"/><path d="m10 253.871094h46.003906c5.523438 0 10-4.476563 10-10 0-5.523438-4.476562-10-10-10h-46.003906c-5.523438 0-10 4.476562-10 10 0 5.523437 4.476562 10 10 10zm0 0" fill="#FFFFFF"/><path d="m63.074219 205.082031c3.902343 3.902344 10.238281 3.902344 14.140625-.003906 3.90625-3.90625 3.902344-10.234375 0-14.140625l-28.292969-28.28125c-3.90625-3.90625-10.238281-3.902344-14.140625 0-3.90625 3.90625-3.90625 10.238281 0 14.144531zm0 0" fill="#FFFFFF"/><path d="m63.074219 282.660156-28.292969 28.28125c-3.90625 3.90625-3.90625 10.238282 0 14.144532 3.902344 3.90625 10.234375 3.910156 14.140625.003906l28.292969-28.285156c3.90625-3.902344 3.90625-10.234376 0-14.140626-3.902344-3.90625-10.234375-3.90625-14.140625-.003906zm0 0" fill="#FFFFFF"/></svg>
